HIERARCHY
ROOT Hips
{
	OFFSET 0.000000 0.000000 0.000000
	CHANNELS 6 Xposition Yposition Zposition Zrotation Yrotation Xrotation 
	JOINT LHipJoint
	{
		OFFSET 0.000000 0.000000 0.000000
		CHANNELS 3 Zrotation Yrotation Xrotation
		JOINT LeftUpLeg
		{
			OFFSET 1.363060 -1.794630 0.839290
			CHANNELS 3 Zrotation Yrotation Xrotation
			JOINT LeftLeg
			{
				OFFSET 2.448110 -6.726130 0.000000
				CHANNELS 3 Zrotation Yrotation Xrotation
				JOINT LeftFoot
				{
					OFFSET 2.562200 -7.039590 0.000000
					CHANNELS 3 Zrotation Yrotation Xrotation
					JOINT LeftToeBase
					{
						OFFSET 0.157640 -0.433110 2.322550
						CHANNELS 3 Zrotation Yrotation Xrotation
						End Site
						{
							OFFSET 0.000000 0.000000 0.000000
						}
					}
				}
			}
		}
	}
	JOINT RHipJoint
	{
		OFFSET 0.000000 0.000000 0.000000
		CHANNELS 3 Zrotation Yrotation Xrotation
		JOINT RightUpLeg
		{
			OFFSET -1.305520 -1.794630 0.839290
			CHANNELS 3 Zrotation Yrotation Xrotation
			JOINT RightLeg
			{
				OFFSET -2.542530 -6.985550 0.000000
				CHANNELS 3 Zrotation Yrotation Xrotation
				JOINT RightFoot
				{
					OFFSET -2.568260 -7.056230 0.000000
					CHANNELS 3 Zrotation Yrotation Xrotation
					JOINT RightToeBase
					{
						OFFSET -0.164730 -0.452590 2.363150
						CHANNELS 3 Zrotation Yrotation Xrotation
						End Site
						{
							OFFSET 0.000000 0.000000 0.000000
						}
					}
				}
			}
		}
	}
	JOINT LowerBack
	{
		OFFSET 0.000000 0.000000 0.000000
		CHANNELS 3 Zrotation Yrotation Xrotation
		JOINT Spine
		{
			OFFSET 0.028270 2.035590 -0.193380
			CHANNELS 3 Zrotation Yrotation Xrotation
			JOINT Spine1
			{
				OFFSET 0.056720 2.048850 -0.042750
				CHANNELS 3 Zrotation Yrotation Xrotation
				JOINT Neck
				{
					OFFSET 0.000000 0.000000 0.000000
					CHANNELS 3 Zrotation Yrotation Xrotation
					JOINT Neck1
					{
						OFFSET -0.054170 1.746240 0.172020
						CHANNELS 3 Zrotation Yrotation Xrotation
						JOINT Head
						{
							OFFSET 0.104070 1.761360 -0.123970
							CHANNELS 3 Zrotation Yrotation Xrotation
							End Site
							{
								OFFSET 0.000000 0.000000 0.000000
							}
						}
					}
				}
				JOINT LeftShoulder
				{
					OFFSET 0.000000 0.000000 0.000000
					CHANNELS 3 Zrotation Yrotation Xrotation
					JOINT LeftArm
					{
						OFFSET 3.362410 1.200890 -0.311210
						CHANNELS 3 Zrotation Yrotation Xrotation
						JOINT LeftForeArm
						{
							OFFSET 4.983000 -0.000000 -0.000000
							CHANNELS 3 Zrotation Yrotation Xrotation
							JOINT LeftHand
							{
								OFFSET 3.483560 -0.000000 -0.000000
								CHANNELS 3 Zrotation Yrotation Xrotation
								JOINT LeftFingerBase
								{
									OFFSET 0.000000 0.000000 0.000000
									CHANNELS 3 Zrotation Yrotation Xrotation
									JOINT LeftHandIndex1
									{
										OFFSET 0.715260 -0.000000 -0.000000
										CHANNELS 3 Zrotation Yrotation Xrotation
										End Site
										{
											OFFSET 0.000000 0.000000 0.000000
										}
									}
								}
								JOINT LThumb
								{
									OFFSET 0.000000 0.000000 0.000000
									CHANNELS 3 Zrotation Yrotation Xrotation
									End Site
									{
										OFFSET 0.000000 0.000000 0.000000
									}
								}
							}
						}
					}
				}
				JOINT RightShoulder
				{
					OFFSET 0.000000 0.000000 0.000000
					CHANNELS 3 Zrotation Yrotation Xrotation
					JOINT RightArm
					{
						OFFSET -3.136600 1.374050 -0.404650
						CHANNELS 3 Zrotation Yrotation Xrotation
						JOINT RightForeArm
						{
							OFFSET -5.241900 -0.000000 -0.000000
							CHANNELS 3 Zrotation Yrotation Xrotation
							JOINT RightHand
							{
								OFFSET -3.444170 -0.000000 -0.000000
								CHANNELS 3 Zrotation Yrotation Xrotation
								JOINT RightFingerBase
								{
									OFFSET 0.000000 0.000000 0.000000
									CHANNELS 3 Zrotation Yrotation Xrotation
									JOINT RightHandIndex1
									{
										OFFSET -0.622530 -0.000000 -0.000000
										CHANNELS 3 Zrotation Yrotation Xrotation
										End Site
										{
											OFFSET 0.000000 0.000000 0.000000
										}
									}
								}
								JOINT RThumb
								{
									OFFSET 0.000000 0.000000 0.000000
									CHANNELS 3 Zrotation Yrotation Xrotation
									End Site
									{
										OFFSET 0.000000 0.000000 0.000000
									}
								}
							}
						}
					}
				}
			}
		}
	}
}
MOTION
Frames: 12
Frame Time: 0.008333
0.145804 17.256872 1.964985 4.145390 -42.442045 15.081733 -8.175462 1.220541 5.684885 -12.043352 -21.394829 -17.501449 -2.512713 -0.986608 6.872333 0.522106 2.167745 -4.969821 0.227100 -0.000000 -23.950000 10.315306 0.480613 4.136482 6.159137 21.032493 -30.078509 -2.382483 -2.642542 60.086309 -5.738619 -34.486776 15.862862 -15.358000 0.000000 -67.701100 -5.384585 -3.783130 -7.121562 -1.908675 -3.534753 -3.717051 -8.387077 -3.453503 1.360528 15.484106 -15.973405 -6.854291 -1.586052 -0.135294 0.260744 0.000000 0.000000 0.000000 0.695633 4.549757 1.461142 -62.882195 -1.399216 4.496388 -2.825778 -41.308081 -0.002776 9.813786 -3.907149 -0.345978 -0.130563 0.083945 -0.000000 0.000000 0.000000 0.000000 0.000000 0.000000 0.000000 5.659221 -12.879717 -3.624224 78.537381 8.481808 7.336940 -179.244951 63.744683 179.846348 -13.900030 18.006436 -2.372772 0.212201 -0.989812 0.000000 0.000000 0.000000 0.000000 0.000000 0.000000 0.000000 
0.149236 17.253389 1.974271 3.878375 -41.424774 15.250490 -8.184139 1.176311 5.636135 -11.750212 -21.620367 -17.513427 -2.515245 -0.944710 7.190410 0.434621 1.532577 -5.019972 0.185800 0.000000 -24.509700 10.394136 0.592326 4.081106 6.253157 21.106907 -31.412034 -2.432850 -2.760930 62.661256 -5.479860 -33.142661 18.270151 -15.643000 0.000000 -67.478700 -5.445716 -3.842103 -6.919055 -1.924519 -3.583903 -3.677307 -8.420960 -3.498109 1.336293 15.624230 -16.033528 -6.869868 -1.576882 -0.133878 0.251527 0.000000 0.000000 0.000000 0.792431 4.316229 1.475708 -62.797714 -1.823439 4.609821 -2.827741 -41.238781 -0.003369 9.831688 -3.902099 -0.346476 -0.131240 0.087500 -0.000000 0.000000 0.000000 0.000000 0.000000 0.000000 0.000000 5.750467 -12.968667 -3.577045 78.543766 8.219002 7.222376 -179.253491 63.742225 179.847164 -13.833960 18.030342 -2.364197 0.210483 -0.988796 0.000000 0.000000 0.000000 0.000000 0.000000 0.000000 0.000000 
0.152987 17.251043 1.982670 3.582338 -40.439160 15.438636 -8.202564 1.133426 5.588343 -11.421461 -21.810014 -17.544521 -2.511740 -0.903362 7.497954 0.350562 0.914944 -5.051100 0.149400 -0.000001 -25.203500 10.467866 0.702597 4.017024 6.397733 21.111221 -32.825811 -2.485427 -2.885715 65.249810 -5.225378 -31.583257 20.380437 -15.569001 -0.000000 -67.106000 -5.484793 -3.899090 -6.717730 -1.936473 -3.633429 -3.638354 -8.456061 -3.543048 1.310336 15.768522 -16.088438 -6.881178 -1.569614 -0.132666 0.243335 0.000000 0.000000 0.000000 0.877910 4.077097 1.490690 -62.706368 -2.238805 4.682033 -2.828169 -41.170016 -0.003999 9.874043 -3.898296 -0.347975 -0.131863 0.091011 -0.000000 0.000000 0.000000 0.000000 0.000000 0.000000 0.000000 5.853434 -13.054172 -3.530671 78.547935 7.974019 7.127165 -179.264648 63.755688 179.848060 -13.767206 18.057479 -2.355821 0.208859 -0.987655 0.000000 0.000000 0.000000 0.000000 0.000000 0.000000 0.000000 
0.157201 17.250091 1.990406 3.260746 -39.487681 15.644983 -8.229517 1.091644 5.546061 -11.055447 -21.984901 -17.598061 -2.500605 -0.862528 7.795683 0.272846 0.336574 -5.062564 0.118301 -0.000000 -25.983999 10.537772 0.810331 3.941478 6.590475 21.038102 -34.324698 -2.548485 -3.021219 67.867755 -4.975044 -29.820685 22.105610 -15.133700 0.000000 -66.570600 -5.503141 -3.953701 -6.520169 -1.944624 -3.682776 -3.600087 -8.491566 -3.587744 1.285599 15.916482 -16.138323 -6.890401 -1.563577 -0.131572 0.235547 0.000000 0.000000 0.000000 0.950962 3.850153 1.505521 -62.611097 -2.668218 4.728918 -2.828365 -41.082573 -0.004665 9.944158 -3.898915 -0.350776 -0.132524 0.094502 -0.000000 0.000000 0.000000 0.000000 0.000000 0.000000 0.000000 5.966671 -13.136613 -3.486915 78.549843 7.746640 7.049519 -179.277688 63.785882 179.849004 -13.703318 18.086820 -2.348247 0.207373 -0.986318 0.000000 0.000000 0.000000 0.000000 0.000000 0.000000 0.000000 
0.161869 17.250848 1.997741 2.916757 -38.569513 15.871358 -8.264981 1.050958 5.511544 -10.650226 -22.153455 -17.683093 -2.480997 -0.821443 8.094092 0.202327 -0.194386 -5.052766 0.092100 0.000000 -26.860300 10.604129 0.915597 3.854849 6.829348 20.891339 -35.910276 -2.629333 -3.169448 70.522663 -4.730603 -27.906867 23.410812 -14.391400 -0.000000 -66.058800 -5.499910 -4.005321 -6.329989 -1.948748 -3.731388 -3.563447 -8.526945 -3.631791 1.261538 16.066963 -16.182526 -6.896512 -1.558635 -0.130608 0.228505 0.000000 0.000000 0.000000 1.011184 3.631193 1.519996 -62.515466 -3.106479 4.751795 -2.828360 -40.974384 -0.005363 10.040147 -3.905084 -0.355077 -0.133209 0.097948 0.000000 0.000000 0.000000 0.000000 0.000000 0.000000 0.000000 6.087638 -13.215288 -3.445468 78.548282 7.532307 6.985689 -179.292235 63.831843 179.849970 -13.645242 18.117018 -2.341772 0.206078 -0.984739 0.000000 0.000000 0.000000 0.000000 0.000000 0.000000 0.000000 
0.167320 17.253566 2.004884 2.549059 -37.684657 16.118534 -8.308848 1.010363 5.486438 -10.203690 -22.326705 -17.805374 -2.451915 -0.779696 8.401205 0.140358 -0.667172 -5.026102 0.070200 0.000001 -27.772700 10.666408 1.019168 3.757567 7.109952 20.679842 -37.580189 -2.733914 -3.331509 73.220094 -4.492810 -25.900253 24.287841 -13.413500 0.000000 -65.699400 -5.474323 -4.052981 -6.149062 -1.948706 -3.778334 -3.528851 -8.562006 -3.674320 1.238182 16.219747 -16.221428 -6.899856 -1.554462 -0.129747 0.222141 0.000000 0.000000 0.000000 1.059695 3.421124 1.533827 -62.424771 -3.557040 4.756300 -2.828540 -40.837573 -0.006088 10.159104 -3.918101 -0.360780 -0.133925 0.101349 -0.000000 0.000000 0.000000 0.000000 0.000000 0.000000 0.000000 6.214610 -13.289896 -3.406257 78.541406 7.327648 6.931437 -179.307894 63.891924 179.850934 -13.595046 18.146210 -2.336397 0.205007 -0.982878 0.000000 0.000000 0.000000 0.000000 0.000000 0.000000 0.000000 
0.173771 17.258425 2.012115 2.152902 -36.830599 16.391668 -8.363526 0.969481 5.469355 -9.711769 -22.494735 -17.979524 -2.412915 -0.735696 8.736887 0.085453 -1.090926 -4.981066 0.051401 0.000000 -28.791600 10.722542 1.121925 3.653250 7.430111 20.421137 -39.330429 -2.865652 -3.506611 75.957426 -4.263223 -23.870983 24.771097 -12.290199 -0.000000 -65.705800 -5.420630 -4.095388 -5.980686 -1.943387 -3.822845 -3.497528 -8.596554 -3.714746 1.213638 16.373472 -16.254533 -6.899261 -1.550911 -0.129009 0.216881 0.000000 0.000000 0.000000 1.097623 3.209282 1.547058 -62.345747 -4.007180 4.738838 -2.828578 -40.674733 -0.006833 10.293190 -3.937582 -0.367585 -0.134612 0.104688 -0.000000 0.000000 0.000000 0.000000 0.000000 0.000000 0.000000 6.343645 -13.358910 -3.368124 78.526390 7.127523 6.881931 -179.324511 63.962645 179.851881 -13.553331 18.172891 -2.332221 0.204153 -0.980743 0.000000 0.000000 0.000000 0.000000 0.000000 0.000000 0.000000 
0.181254 17.265505 2.019571 1.729745 -36.008942 16.691285 -8.428932 0.927163 5.460841 -9.172154 -22.665239 -18.206739 -2.363415 -0.689682 9.106213 0.038831 -1.457277 -4.928015 0.035300 -0.000000 -29.820500 10.771737 1.224593 3.543412 7.781649 20.129856 -41.155846 -3.028146 -3.694615 78.739746 -4.039993 -21.854940 24.883472 -11.080400 -0.000000 -65.932500 -5.338336 -4.131273 -5.825726 -1.932655 -3.863660 -3.469140 -8.630332 -3.751737 1.190197 16.529523 -16.283099 -6.897952 -1.547285 -0.128287 0.211810 0.000000 0.000000 0.000000 1.127984 3.009721 1.559600 -62.284354 -4.476994 4.713900 -2.829796 -40.468701 -0.007588 10.437038 -3.964289 -0.375590 -0.135336 0.108005 0.000000 0.000000 0.000000 0.000000 0.000000 0.000000 0.000000 6.474448 -13.422464 -3.331634 78.500901 6.932742 6.834262 -179.342047 64.039683 179.852797 -13.520272 18.195139 -2.328945 0.203545 -0.978354 0.000000 0.000000 0.000000 0.000000 0.000000 0.000000 0.000000 
0.190139 17.274828 2.027361 1.273443 -35.221064 17.020457 -8.506575 0.881849 5.459289 -8.580573 -22.834970 -18.490380 -2.302843 -0.641536 9.516788 0.000428 -1.767069 -4.875241 0.021600 0.000001 -30.817900 10.811222 1.328404 3.431869 8.156613 19.829460 -43.048178 -3.221957 -3.893678 81.559689 -3.823514 -19.897545 24.694660 -9.854900 0.000000 -66.429600 -5.223538 -4.158795 -5.685148 -1.915875 -3.899290 -3.444189 -8.663626 -3.783863 1.166711 16.688440 -16.307249 -6.896365 -1.543454 -0.127569 0.206842 0.000000 0.000000 0.000000 1.154245 2.818847 1.571597 -62.246909 -4.961449 4.681121 -2.832096 -40.219856 -0.008346 10.582073 -3.996615 -0.384097 -0.136069 0.111304 -0.000000 0.000000 0.000000 0.000000 0.000000 0.000000 0.000000 6.606252 -13.478751 -3.295743 78.460758 6.741690 6.784524 -179.360848 64.119763 179.853698 -13.493996 18.211812 -2.326169 0.203159 -0.975751 0.000000 0.000000 0.000000 0.000000 0.000000 0.000000 0.000000 
0.200592 17.286260 2.035679 0.775904 -34.467475 17.385801 -8.599895 0.832545 5.461627 -7.930316 -22.986447 -18.839205 -2.230856 -0.590620 9.981108 -0.031577 -2.034534 -4.826699 0.009400 0.000001 -31.830400 10.837466 1.433909 3.324111 8.548440 19.545027 -45.001020 -3.446724 -4.101462 84.408220 -3.614007 -18.027242 24.282235 -8.665300 -0.000000 -67.171100 -5.068125 -4.176176 -5.561555 -1.891470 -3.928706 -3.423596 -8.696488 -3.810208 1.141888 16.849820 -16.326539 -6.894669 -1.539116 -0.126838 0.202012 0.000000 0.000000 0.000000 1.178599 2.631682 1.583330 -62.239914 -5.451424 4.637878 -2.835132 -39.932934 -0.009100 10.718839 -4.031845 -0.392804 -0.136772 0.114600 0.000000 0.000000 0.000000 0.000000 0.000000 0.000000 0.000000 6.735631 -13.525493 -3.259421 78.402300 6.553480 6.729767 -179.381265 64.197721 179.854582 -13.472046 18.222315 -2.323293 0.202953 -0.973025 0.000000 0.000000 0.000000 0.000000 0.000000 0.000000 0.000000 
0.212842 17.299597 2.044581 0.230357 -33.751378 17.791406 -8.711068 0.777688 5.465816 -7.215621 -23.111683 -19.252774 -2.147001 -0.537424 10.500170 -0.057615 -2.264135 -4.790549 -0.001400 -0.000000 -32.831701 10.847288 1.541759 3.224556 8.946805 19.299222 -47.007485 -3.701771 -4.315741 87.276736 -3.411362 -16.254946 23.723519 -7.543800 0.000000 -68.056700 -4.866422 -4.181736 -5.456214 -1.858368 -3.950756 -3.407808 -8.729128 -3.829657 1.115053 17.014004 -16.340404 -6.893733 -1.534130 -0.126073 0.197114 0.000000 0.000000 0.000000 1.203998 2.448543 1.595072 -62.268639 -5.942982 4.584391 -2.838668 -39.611677 -0.009846 10.839748 -4.066956 -0.400913 -0.137432 0.117912 0.000000 0.000000 0.000000 0.000000 0.000000 0.000000 0.000000 6.861671 -13.560163 -3.221993 78.321672 6.369310 6.668208 -179.403827 64.270252 179.855464 -13.451271 18.226464 -2.319917 0.202881 -0.970256 0.000000 0.000000 0.000000 0.000000 0.000000 0.000000 0.000000 
0.226982 17.314592 2.054080 -0.366454 -33.077304 18.238661 -8.840615 0.715586 5.471140 -6.431262 -23.214255 -19.719556 -2.050715 -0.483447 11.060701 -0.076762 -2.448458 -4.773548 -0.010400 -0.000001 -33.762401 10.838196 1.652805 3.136611 9.337302 19.112257 -49.058712 -3.986062 -4.534172 90.155232 -3.215946 -14.582450 23.096204 -6.508900 -0.000001 -68.999500 -4.616162 -4.174222 -5.369132 -1.816154 -3.964407 -3.396565 -8.761946 -3.841080 1.087053 17.182544 -16.348549 -6.895416 -1.528166 -0.125219 0.191597 0.000000 0.000000 0.000000 1.233402 2.278374 1.607019 -62.335716 -6.441669 4.526342 -2.842864 -39.255815 -0.010578 10.940266 -4.099321 -0.408123 -0.138083 0.121270 -0.000000 0.000000 0.000000 0.000000 0.000000 0.000000 0.000000 6.984367 -13.580785 -3.183606 78.216806 6.193279 6.599525 -179.428881 64.332104 179.856362 -13.428597 18.225015 -2.315442 0.202919 -0.967586 0.000000 0.000000 0.000000 0.000000 0.000000 0.000000 0.000000 
